Company.Of.Heroes.2013.BDRiP.AC3-5.1.XviD-AXED

IMDB: 
http://www.imdb.com/title/tt2555426/

MEDIAINFO:
General
Complete name                    : Company.Of.Heroes.2013.BDRiP.AC3-5.1.XviD-AXED.avi
Format                           : AVI
Format/Info                      : Audio Video Interleave
File size                        : 1.50 GiB
Duration                         : 1h 40mn
Overall bit rate                 : 2 135 Kbps

Video
ID                               : 0
Format                           : MPEG-4 Visual
Format profile                   : Advanced Simple@L5
Format settings, BVOP            : 1
Format settings, QPel            : No
Format settings, GMC             : No warppoints
Format settings, Matrix          : Default (H.263)
Codec ID                         : XVID
Codec ID/Hint                    : XviD
Duration                         : 1h 40mn
Bit rate                         : 1 744 Kbps
Width                            : 720 pixels
Height                           : 400 pixels
Display aspect ratio             : 16:9
Frame rate                       : 23.976 fps
Color space                      : YUV
Chroma subsampling               : 4:2:0
Bit depth                        : 8 bits
Scan type                        : Progressive
Compression mode                 : Lossy
Bits/(Pixel*Frame)               : 0.253
Stream size                      : 1.22 GiB (82%)
Writing library                  : XviD 1.2.1 (UTC 2008-12-04)

Audio
ID                               : 1
Format                           : AC-3
Format/Info                      : Audio Coding 3
Mode extension                   : CM (complete main)
Codec ID                         : 2000
Duration                         : 1h 40mn
Bit rate mode                    : Constant
Bit rate                         : 384 Kbps
Channel(s)                       : 2 channels
Channel positions                : Front: L R
Sampling rate                    : 48.0 KHz
Bit depth                        : 16 bits
Compression mode                 : Lossy
Stream size                      : 276 MiB (18%)
Alignment                        : Aligned on interleaves
Interleave, duration             : 64 ms (1.54 video frames)
Interleave, preload duration     : 192 ms
Title                            : 00001.dga PID 1100 C+L+R+SL+SR 48 1536 DELAY 0ms

SOURCE:
RA Retail Blu Ray DISC


NOTES:
I got nothing.

AXED! - We're still lurking, out there in the darkness


Cast: Tom Sizemore, Chad Michael Collins, Vinnie Jones

Plot: American soldiers lost behind enemy lines during the WWII make a horrific discovery: Hitler has a super bomb in development. Against all odds, they set out 
to find the scientist i n charge of the program who is looking to defect. 


Screens:
 
http://imageshack.us/a/img40/7086/18830706.png
 
http://imageshack.us/a/img651/3406/46810777.png
 
http://imageshack.us/a/img442/5766/11820079.png
 
http://imageshack.us/a/img690/5327/31171723.png
 
http://imageshack.us/a/img585/2252/25044312.png